<svg width="441" height="22" viewBox="0 0 441 22" fill="none" xmlns="http://www.w3.org/2000/svg">
<path d="M252.262 10.1206C271.02 10.091 289.749 8.35068 308.307 5.71592C326.415 3.14483 344.569 0.862541 362.859 0.210672C373.593 -0.171353 384.439 -0.0963037 395.097 1.39466C400.349 2.12915 405.716 3.16684 410.59 5.32331C412.076 5.97745 413.963 6.79076 415.032 8.08086C415.388 8.50912 414.782 9.1284 414.418 8.69635C413.599 7.70718 412.212 7.05605 411.067 6.49741C406.732 4.38339 401.722 4.06366 397 3.29279C386.942 1.64947 377.172 1.16271 367 1.39466C349.278 1.80018 330.04 3.98923 312.5 6.49741C292.144 9.40884 272.851 10.9597 252.262 10.9915C251.701 10.9923 251.701 10.1214 252.262 10.1206Z" fill="white"/>
<path d="M187.878 10.922C169.12 10.8924 150.391 9.15208 131.833 6.51731C113.724 3.94622 95.5707 1.66393 77.2805 1.01206C66.5474 0.630038 55.7006 0.705088 45.0433 2.19605C39.7904 2.93054 34.4239 3.96823 29.55 6.1247C28.0643 6.77884 26.177 7.59215 25.1082 8.88225C24.752 9.31051 25.3583 9.9298 25.7222 9.49774C26.5408 8.50857 27.9279 7.85744 29.0725 7.2988C33.4082 5.18478 38.4176 4.86505 43.1399 4.09418C53.1984 2.45086 62.9677 1.9641 73.1399 2.19605C90.8616 2.60157 110.1 4.79062 127.64 7.2988C147.996 10.2102 167.289 11.7611 187.878 11.7929C188.438 11.7937 188.439 10.9228 187.878 10.922Z" fill="white"/>
<path d="M215.627 3.17059C215.509 3.17059 215.39 3.17515 215.272 3.18349C214.64 3.17212 208.993 3.27444 205.131 10.2449C203.851 12.5189 202.123 14.6488 200.624 15.8002L200.397 15.9844C198.475 17.5481 195.913 18.0241 193.546 17.2555C191.283 16.521 189.639 14.8027 189.037 12.5393C188.989 12.362 188.948 12.1823 188.912 12.0004C188.597 10.3707 189.003 8.70086 190.058 7.29707C191.559 5.2975 193.553 4.41293 195.533 4.87075C197.318 5.28461 198.698 6.73466 199.048 8.5652C199.225 9.49677 198.988 10.4927 198.395 11.2977C197.503 12.5105 196.322 13.0525 195.16 12.7895C194.12 12.553 193.315 11.7108 193.113 10.6428C192.903 9.54224 193.608 8.47424 194.684 8.26125L194.38 6.72329C192.461 7.10228 191.201 8.99193 191.573 10.9362C191.893 12.6166 193.165 13.9439 194.812 14.3176C196.587 14.7223 198.398 13.9386 199.657 12.2278C200.508 11.0718 200.847 9.6294 200.587 8.27109C200.121 5.83189 198.276 3.89675 195.887 3.34342C193.314 2.74764 190.667 3.87476 188.803 6.35566C187.48 8.11798 186.972 10.2282 187.374 12.2983C187.415 12.5158 187.465 12.7311 187.521 12.9433C188.263 15.7297 190.283 17.8452 193.061 18.7465C195.937 19.6811 199.05 19.102 201.387 17.2002L201.596 17.0296C203.26 15.7524 205.099 13.4967 206.5 11.0097C210.053 4.59562 215.205 4.75404 215.257 4.751L215.305 4.75328L215.355 4.74949C216.239 4.68051 217.102 4.95869 217.784 5.54006C218.485 6.13811 218.911 6.98024 218.984 7.90953C219.094 9.32697 218.056 10.5807 216.67 10.7042C216.179 10.7527 215.659 10.5511 215.274 10.1759C214.699 9.61425 214.493 8.95025 214.708 8.35448C214.889 7.85042 215.344 7.4987 215.865 7.45625L215.739 5.89404C214.607 5.98499 213.623 6.74148 213.234 7.82161C212.807 9.00331 213.16 10.3025 214.179 11.2977C214.885 11.9875 215.865 12.3536 216.81 12.2657C219.047 12.0663 220.723 10.0577 220.546 7.78826C220.442 6.4398 219.821 5.21792 218.801 4.34775C217.903 3.58142 216.789 3.17059 215.627 3.17059" fill="white"/>
<path d="M223.924 3.17059C222.763 3.17059 221.648 3.58067 220.75 4.34775C219.729 5.21792 219.11 6.4398 219.004 7.78826C218.828 10.0577 220.505 12.0663 222.741 12.2657C223.679 12.3513 224.665 11.9883 225.372 11.2977C226.39 10.3025 226.744 9.00331 226.317 7.82161C225.928 6.74148 224.944 5.98499 223.812 5.89404L223.686 7.45625C224.207 7.4987 224.661 7.85042 224.843 8.35448C225.058 8.95025 224.852 9.61425 224.276 10.1759C223.893 10.5504 223.373 10.749 222.881 10.7042C221.494 10.5807 220.457 9.32697 220.568 7.90953C220.64 6.98024 221.066 6.13811 221.768 5.54006C222.449 4.95869 223.312 4.67748 224.197 4.74949L224.246 4.75328L224.295 4.751C224.504 4.75252 229.524 4.64185 233.049 11.0044C234.451 13.4967 236.292 15.7524 237.972 17.0433L238.163 17.1994C240.502 19.1012 243.614 19.6795 246.49 18.7465C249.269 17.8452 251.287 15.7297 252.029 12.9426C252.086 12.7311 252.135 12.5166 252.178 12.299C252.579 10.229 252.071 8.11873 250.747 6.35566C248.884 3.87401 246.236 2.74688 243.663 3.34342C241.275 3.89675 239.43 5.83113 238.964 8.27109C238.704 9.63016 239.043 11.0718 239.895 12.2278C241.155 13.9393 242.967 14.7185 244.738 14.3176C246.386 13.9439 247.659 12.6166 247.979 10.9362C248.35 8.99193 247.089 7.10228 245.171 6.72329L244.867 8.26125C245.943 8.47424 246.649 9.54224 246.438 10.6428C246.235 11.7108 245.431 12.553 244.392 12.7895C243.23 13.0525 242.049 12.5105 241.157 11.2977C240.563 10.4927 240.325 9.49677 240.503 8.5652C240.853 6.73466 242.233 5.28461 244.017 4.87075C245.996 4.41141 247.992 5.29674 249.494 7.29707C250.547 8.70086 250.954 10.3707 250.638 11.9996C250.604 12.1823 250.562 12.3627 250.514 12.5408C249.911 14.8027 248.268 16.521 246.005 17.2555C243.637 18.0249 241.076 17.5481 239.153 15.9836L238.946 15.8138C237.428 14.6488 235.7 12.5188 234.417 10.2403C230.557 3.27216 224.929 3.16303 224.279 3.18349C224.161 3.17515 224.042 3.17059 223.924 3.17059" fill="white"/>
<path d="M218.822 14.3077C218.941 13.6952 219.393 13.4761 219.776 13.4761C220.159 13.4761 220.609 13.6952 220.728 14.3077C221.001 15.713 220.334 17.4958 219.776 18.6669C219.217 17.4958 218.55 15.713 218.822 14.3077ZM219.776 11.9086C218.528 11.9086 217.527 12.7523 217.284 14.009V14.0098C216.723 16.9045 219.015 20.5853 219.113 20.7407L219.776 21.7928L220.438 20.7407C220.537 20.5853 222.828 16.9045 222.267 14.009C222.023 12.753 221.023 11.9086 219.776 11.9086" fill="white"/>
<path d="M432.682 8.94116C432.083 8.8214 431.871 8.35448 431.871 7.95806C431.871 7.56163 432.083 7.09545 432.682 6.97493C434.001 6.71342 435.759 7.3547 436.987 7.95881C435.759 8.56217 434.001 9.20418 432.682 8.94116V8.94116ZM433.334 5.34753C433.008 5.34753 432.689 5.37559 432.378 5.43851C431.135 5.68713 430.302 6.69904 430.302 7.95806C430.302 9.21707 431.135 10.2297 432.378 10.4776C435.236 11.0537 438.867 8.71528 439.018 8.61522L440.027 7.95881L439.018 7.30239C438.882 7.21294 435.987 5.34753 433.334 5.34753" fill="white"/>
<path d="M427.83 10.9089C427.709 10.9089 427.573 10.8513 427.474 10.7565C427.307 10.5875 427.239 10.4139 427.292 10.2684C427.323 10.1888 427.398 10.0918 427.527 10.0819L427.421 8.735C427.702 8.74486 427.974 8.84946 428.194 9.0382C428.459 9.26635 428.619 9.58849 428.649 9.94399C428.687 10.4329 428.331 10.8649 427.861 10.9074L427.83 10.9089ZM427.376 7.16595L427.186 7.17278H427.179C426.686 7.17278 423.79 7.32818 421.82 10.8816C421.213 11.964 420.395 12.9759 419.69 13.5171L419.568 13.6164C418.719 14.3077 417.582 14.5169 416.536 14.1766C415.543 13.8544 414.823 13.1018 414.558 12.1103C414.535 12.03 414.52 11.9504 414.505 11.8693C414.369 11.1712 414.543 10.4526 414.998 9.8462C415.65 8.98437 416.491 8.59856 417.31 8.78958C418.045 8.95936 418.613 9.5574 418.757 10.3131C418.825 10.6679 418.735 11.0499 418.507 11.3614C418.151 11.8382 417.726 12.0474 417.302 11.9504C416.938 11.8685 416.658 11.5721 416.589 11.1962C416.521 10.8619 416.733 10.539 417.059 10.4753L416.756 8.93738C415.589 9.16629 414.823 10.3116 415.051 11.4895C415.233 12.4787 415.983 13.2594 416.953 13.4792C417.999 13.7142 419.045 13.2708 419.765 12.2915C420.251 11.629 420.448 10.8013 420.296 10.019C420.038 8.65389 419.007 7.57148 417.666 7.26222C416.233 6.93022 414.77 7.5442 413.747 8.90479C413.034 9.85682 412.746 11.0446 412.966 12.1664C412.989 12.2839 413.012 12.4006 413.042 12.5151C413.444 14.0068 414.566 15.1855 416.051 15.6683C417.605 16.1731 419.295 15.8601 420.554 14.8315L420.66 14.7458C421.516 14.0894 422.471 12.9251 423.191 11.6456C424.298 9.64304 425.716 9.01924 426.527 8.82596C426.208 9.04198 425.951 9.35731 425.814 9.73554C425.549 10.4723 425.761 11.2727 426.383 11.8776C426.815 12.2998 427.413 12.5227 427.997 12.4688C429.324 12.3506 430.317 11.1628 430.21 9.82194C430.15 9.04804 429.794 8.3454 429.21 7.84513C428.687 7.40322 428.05 7.16595 427.376 7.16595" fill="white"/>
<path d="M427.421 7.1713L427.527 5.8236C427.398 5.81375 427.323 5.71673 427.292 5.63714C427.239 5.49085 427.307 5.31727 427.474 5.149C427.58 5.04591 427.732 4.98755 427.861 4.9974C428.331 5.03985 428.687 5.4719 428.649 5.9608C428.619 6.31781 428.459 6.6392 428.194 6.86735C427.974 7.05533 427.702 7.16069 427.421 7.1713V7.1713ZM417.544 0C417.044 0 416.544 0.0780638 416.051 0.237241C414.566 0.719321 413.444 1.89876 413.042 3.39199C413.012 3.50493 412.989 3.62165 412.966 3.74065C412.746 4.8602 413.034 6.04948 413.747 7.00076C414.77 8.36059 416.233 8.97531 417.666 8.64331C419.007 8.33329 420.038 7.25165 420.296 5.88652C420.448 5.10504 420.251 4.2758 419.765 3.61484C419.045 2.63476 417.992 2.18982 416.953 2.42556C415.983 2.64613 415.233 3.42686 415.051 4.41527C414.823 5.59319 415.589 6.73774 416.756 6.96817L417.059 5.43021C416.733 5.36654 416.521 5.04288 416.589 4.70936C416.658 4.3334 416.938 4.03703 417.302 3.95441C417.726 3.85891 418.151 4.06811 418.507 4.54413C418.735 4.85566 418.825 5.23767 418.757 5.59241C418.613 6.34812 418.045 6.94618 417.31 7.11597C416.491 7.30547 415.65 6.92117 414.998 6.05858C414.543 5.45295 414.369 4.73437 414.505 4.03702C414.52 3.9544 414.535 3.87558 414.558 3.79674C414.823 2.80378 415.543 2.0511 416.536 1.7282C417.582 1.38862 418.719 1.59859 419.568 2.29063L419.667 2.374C420.394 2.92961 421.213 3.94076 421.827 5.02847C423.805 8.60087 426.716 8.70548 427.186 8.73277C427.921 8.78507 428.641 8.54402 429.21 8.06042C429.794 7.55939 430.15 6.85749 430.21 6.08359C430.317 4.74195 429.324 3.55495 427.997 3.43594C427.413 3.38213 426.815 3.60574 426.383 4.02718C425.761 4.63281 425.549 5.434 425.814 6.17001C425.951 6.549 426.208 6.86432 426.527 7.08035C425.716 6.88858 424.298 6.26702 423.191 4.26442C422.471 2.98039 421.516 1.81613 420.645 1.14455L420.554 1.07482C419.69 0.369892 418.628 0 417.544 0" fill="white"/>
<path d="M3.04331 8.52804C4.27352 7.92392 6.03357 7.28266 7.3464 7.54341C7.94521 7.66393 8.1582 8.13011 8.1582 8.52654C8.1582 8.92296 7.94521 9.38912 7.3464 9.50964C6.02675 9.77267 4.27125 9.13139 3.04331 8.52804ZM6.69682 5.91602C4.04235 5.91602 1.14532 7.78067 1.00889 7.87011L0 8.5273L1.00889 9.18371C1.16276 9.28376 4.78744 11.6222 7.65415 11.0461C8.89346 10.7982 9.72574 9.78555 9.72574 8.52654C9.72574 7.26752 8.89346 6.25561 7.65415 6.00699C7.34262 5.94408 7.02124 5.91602 6.69682 5.91602" fill="white"/>
<path d="M12.2013 11.4774L12.1702 11.4759C11.6972 11.4334 11.3425 11.0014 11.3811 10.5125C11.4084 10.157 11.5714 9.83483 11.8389 9.60592C12.0595 9.41794 12.3301 9.31258 12.6121 9.30348L12.5037 10.6504C12.631 10.6603 12.7099 10.7573 12.7387 10.8369C12.791 10.9824 12.725 11.156 12.553 11.3243C12.4552 11.4198 12.3203 11.4774 12.2013 11.4774ZM12.653 7.73444C11.983 7.73444 11.3394 7.9717 10.8225 8.41361C10.235 8.91388 9.8788 9.61652 9.8174 10.3912C9.71355 11.7313 10.7058 12.9191 12.0307 13.0373C12.6129 13.0828 13.2154 12.8675 13.6475 12.4461C14.2683 11.8412 14.479 11.04 14.2129 10.304C14.0765 9.92503 13.8234 9.60895 13.5027 9.39368C14.313 9.58621 15.7282 10.207 16.8379 12.2096C17.5602 13.4936 18.5123 14.6579 19.387 15.3287L19.4726 15.3992C20.7385 16.4293 22.4197 16.7416 23.9766 16.2368C25.4637 15.754 26.5886 14.5753 26.9865 13.082C27.0169 12.9683 27.0434 12.8539 27.0662 12.7372C27.2837 11.6131 26.9987 10.4253 26.2847 9.47327C25.2621 8.11193 23.7977 7.4987 22.3628 7.8307C21.0257 8.14072 19.9926 9.22237 19.7319 10.5875C19.5818 11.3698 19.7758 12.1975 20.264 12.8599C20.9856 13.8393 22.0369 14.2819 23.0738 14.0477C24.0448 13.8272 24.7937 13.0464 24.9817 12.058C25.2068 10.8801 24.4412 9.73477 23.2762 9.50586L22.9738 11.0438C23.2959 11.1075 23.5059 11.4304 23.4414 11.7647C23.3702 12.1406 23.0898 12.437 22.7267 12.5188C22.3007 12.6159 21.877 12.4067 21.526 11.9299C21.2964 11.6184 21.2039 11.2363 21.2713 10.8816C21.4153 10.1259 21.9831 9.52785 22.7168 9.35806C23.54 9.16856 24.3829 9.5521 25.031 10.4147C25.4865 11.0211 25.6623 11.7397 25.5274 12.437C25.5115 12.5174 25.4926 12.6 25.4713 12.6803C25.2076 13.6703 24.486 14.4229 23.493 14.7451C22.4455 15.0862 21.313 14.8754 20.4618 14.1842L20.3595 14.1C19.6371 13.5444 18.8185 12.5325 18.2068 11.4456C16.2277 7.87241 13.336 7.7261 12.8433 7.74126L12.653 7.73444" fill="white"/>
<path d="M12.6121 7.73972C12.3301 7.72911 12.0595 7.62451 11.8389 7.43653C11.5714 7.20762 11.4084 6.88623 11.3811 6.52998C11.3425 6.04032 11.6972 5.60827 12.1709 5.56582C12.293 5.55218 12.4476 5.61434 12.5537 5.71818C12.725 5.88569 12.791 6.05927 12.7387 6.20556C12.7099 6.28515 12.6303 6.38217 12.5037 6.39202L12.6121 7.73972ZM22.4871 0.56842C21.4032 0.56842 20.3398 0.937554 19.4734 1.64248L19.3688 1.72813C18.5122 2.38454 17.5602 3.54882 16.8401 4.8283C15.7312 6.83015 14.3183 7.45397 13.5043 7.64725C13.8241 7.43198 14.0765 7.11666 14.2129 6.73843C14.479 6.00242 14.2683 5.20123 13.6483 4.59636C13.2147 4.17416 12.6075 3.95282 12.0315 4.00436C10.7058 4.12337 9.71355 5.31037 9.8174 6.65201C9.8788 7.42591 10.235 8.12857 10.8225 8.62884C11.3887 9.11244 12.1035 9.35121 12.8433 9.30119H12.8524C13.3443 9.30119 16.2406 9.14578 18.2091 5.59234C18.8185 4.50918 19.6371 3.49802 20.3413 2.95682L20.4633 2.85754C21.313 2.16777 22.4455 1.95552 23.493 2.29662C24.4867 2.61876 25.2075 3.3722 25.4721 4.36441C25.4926 4.44324 25.5115 4.52358 25.5274 4.60696C25.6623 5.30279 25.4865 6.02137 25.031 6.62701C24.3836 7.48959 23.5415 7.87768 22.7168 7.68363C21.9831 7.5146 21.4153 6.91655 21.2713 6.16083C21.2039 5.80609 21.2964 5.42332 21.526 5.11255C21.877 4.63577 22.3007 4.42733 22.7267 4.52283C23.0898 4.60545 23.3702 4.90182 23.4414 5.27778C23.5059 5.61206 23.2959 5.93496 22.973 5.99863L23.277 7.53659C24.442 7.30616 25.2068 6.16161 24.9817 4.98369C24.7937 3.99604 24.0448 3.21455 23.0738 2.99398C22.0369 2.75824 20.9856 3.20242 20.264 4.18326C19.7758 4.84422 19.5818 5.6727 19.7319 6.45494C19.9926 7.82008 21.0257 8.90171 22.3628 9.21173C23.7969 9.54221 25.2621 8.92976 26.2847 7.56918C26.9987 6.6179 27.2837 5.42862 27.0662 4.3068C27.0434 4.18931 27.0169 4.07485 26.9873 3.96191C26.5886 2.46716 25.4637 1.28774 23.9766 0.805661C23.4877 0.646484 22.9851 0.56842 22.4871 0.56842Z" fill="white"/>
</svg>
