<svg width="784" height="956" viewBox="0 0 784 956" fill="none" xmlns="http://www.w3.org/2000/svg">
<path d="M392.042 950.677C812.59 684.393 777.993 165.122 777.993 165.122C527.792 127.831 392.042 5.34778 392.042 5.34778H391.935C391.935 5.34778 256.187 127.831 5.98672 165.122C5.98672 165.122 -28.6141 684.393 391.935 950.677H392.042Z" fill="#9D3A3A"/>
<path d="M392.042 926.763C791.312 673.948 758.456 180.95 758.456 180.95C520.921 145.554 392.042 29.2603 392.042 29.2603H391.94C391.94 29.2603 263.062 145.554 25.521 180.95C25.521 180.95 -7.331 673.948 391.94 926.763H392.042Z" stroke="#FFF0ED" stroke-width="12.62"/>
<path d="M392.042 950.677C812.59 684.393 777.993 165.122 777.993 165.122C527.792 127.831 392.042 5.34775 392.042 5.34775H391.935C391.935 5.34775 256.187 127.831 5.98672 165.122C5.98672 165.122 -28.6141 684.393 391.935 950.677H392.042Z" stroke="#C4C4C4" stroke-width="3.15467"/>
</svg>
