<svg width="305" height="36" viewBox="0 0 305 36" fill="none" xmlns="http://www.w3.org/2000/svg">
<path d="M289.645 15.444C288.168 15.7351 287.64 16.8652 287.64 17.8249C287.64 18.7846 288.168 19.9137 289.645 20.2059C292.812 20.8324 297.059 19.2451 299.911 17.8283C297.273 16.5066 292.998 14.782 289.645 15.444ZM291.178 23.5721C290.446 23.5721 289.722 23.5101 289.018 23.3706C286.265 22.826 284.414 20.5978 284.414 17.8249C284.414 15.0532 286.265 12.825 289.018 12.2793C295.484 10.9953 303.745 16.2443 304.094 16.469C304.556 16.7656 304.834 17.2759 304.834 17.8249C304.834 18.374 304.556 18.8843 304.094 19.1809C303.783 19.3813 297.192 23.5721 291.178 23.5721Z" fill="white"/>
<path d="M278.558 10.9864C278.233 10.9864 277.883 11.1336 277.624 11.3838C277.184 11.8089 277.018 12.255 277.156 12.6413C277.264 12.9435 277.538 13.1538 277.853 13.1792C278.741 13.2501 279.405 14.0271 279.333 14.916C279.302 15.3089 279.133 15.6587 278.875 15.9188C279.11 15.8037 279.332 15.6576 279.537 15.4827C280.171 14.9392 280.557 14.1788 280.623 13.3419C280.718 12.1498 279.834 11.0949 278.65 10.9908L278.558 10.9864ZM277.529 19.4565C277.386 19.4565 277.244 19.4521 277.101 19.4433C276.173 19.4278 269.479 19.1865 264.963 11.1392C263.556 8.66853 261.666 6.35948 260.034 5.12195L259.763 4.905C257.748 3.28779 255.068 2.80629 252.596 3.61213C250.28 4.36704 248.6 6.10933 247.985 8.3929C247.933 8.57886 247.891 8.76261 247.855 8.94857C247.537 10.568 247.951 12.235 249.02 13.6419C250.557 15.6621 252.57 16.5531 254.537 16.096C256.279 15.6886 257.624 14.2872 257.966 12.5228C258.128 11.6805 257.907 10.7739 257.355 10.0356C256.515 8.90763 255.444 8.39843 254.397 8.63531C253.501 8.84009 252.808 9.5607 252.633 10.4706C252.471 11.3096 253.016 12.1232 253.848 12.2859C254.722 12.4564 255.292 13.3021 255.122 14.1777C254.95 15.051 254.099 15.6189 253.23 15.4517C250.656 14.9492 248.967 12.442 249.466 9.85957C249.881 7.69665 251.535 5.98204 253.678 5.49167C255.985 4.96588 258.325 5.94109 259.941 8.10733C261.033 9.57289 261.468 11.4048 261.132 13.1349C260.549 16.1469 258.249 18.5411 255.271 19.2363C252.052 19.9901 248.757 18.6253 246.452 15.5934C244.842 13.4748 244.199 10.827 244.689 8.32872C244.741 8.06306 244.802 7.80292 244.872 7.54612C245.774 4.1988 248.224 1.64403 251.595 0.544859C255.111 -0.604122 258.918 0.0888004 261.781 2.39008L262.017 2.57936C263.969 4.06042 266.132 6.67606 267.771 9.55073C270.959 15.2359 275.242 16.0782 276.636 16.1978C275.481 15.8093 274.54 14.9082 274.12 13.7282C273.546 12.1243 274.019 10.3809 275.384 9.0637C276.333 8.14496 277.689 7.66343 278.934 7.77745C281.87 8.03536 284.072 10.6455 283.84 13.5954C283.707 15.289 282.923 16.8287 281.637 17.9312C280.479 18.9252 279.037 19.4565 277.529 19.4565Z" fill="white"/>
<path d="M278.875 19.7577C279.133 20.0189 279.302 20.3664 279.333 20.7594C279.405 21.6471 278.741 22.4242 277.853 22.4951C277.538 22.5205 277.264 22.7319 277.156 23.0341C277.018 23.4204 277.184 23.8665 277.624 24.2905C277.908 24.5639 278.272 24.7122 278.65 24.6845C279.834 24.5805 280.718 23.5256 280.623 22.3334C280.557 21.4966 280.171 20.7373 279.537 20.1927C279.333 20.0189 279.112 19.8728 278.875 19.7577ZM255 35.674C253.863 35.674 252.714 35.4947 251.595 35.1305C248.224 34.0302 245.774 31.4766 244.87 28.1226C244.802 27.8713 244.741 27.6112 244.689 27.3478C244.199 24.8484 244.842 22.2006 246.452 20.082C248.757 17.0501 252.055 15.6897 255.271 16.4391C258.249 17.1342 260.549 19.5285 261.132 22.5393C261.468 24.2694 261.033 26.1036 259.941 27.568C258.325 29.7343 255.984 30.7128 253.678 30.1837C251.535 29.6933 249.881 27.9787 249.464 25.8158C248.967 23.2345 250.656 20.7251 253.23 20.2237C254.099 20.0499 254.95 20.6233 255.122 21.4977C255.292 22.3733 254.722 23.219 253.848 23.3894C253.016 23.551 252.471 24.3658 252.631 25.2059C252.808 26.1147 253.5 26.8342 254.397 27.0389C255.434 27.2769 256.514 26.7678 257.355 25.6398C257.907 24.9004 258.128 23.9938 257.966 23.1526C257.624 21.3881 256.279 19.9868 254.537 19.5794C252.57 19.1256 250.557 20.0144 249.02 22.0335C247.951 23.4404 247.537 25.1074 247.855 26.7268C247.891 26.9139 247.933 27.0976 247.984 27.2781C248.6 29.5672 250.28 31.3083 252.596 32.0644C255.072 32.8713 257.749 32.3876 259.762 30.7715L259.998 30.5811C261.666 29.3148 263.556 27.0068 264.969 24.5273C269.476 16.49 276.124 16.1989 277.101 16.2332C278.748 16.1236 280.367 16.6549 281.637 17.7441C282.923 18.8466 283.707 20.3864 283.84 22.08C284.072 25.0299 281.87 27.6389 278.934 27.8979C277.653 28.0108 276.332 27.5293 275.384 26.6117C274.019 25.2945 273.546 23.551 274.12 21.9471C274.54 20.766 275.483 19.865 276.638 19.4765C275.263 19.5949 270.967 20.424 267.777 26.1147C266.132 28.9993 263.969 31.6161 261.985 33.1215L261.782 33.2853C259.829 34.8538 257.438 35.674 255 35.674Z" fill="white"/>
<path d="M249.308 19H3.69206C1.65219 19 0 18.3288 0 17.5C0 16.6713 1.65219 16 3.69206 16H249.308C251.348 16 253 16.6713 253 17.5C253 18.3288 251.348 19 249.308 19Z" fill="white"/>
</svg>
