<svg width="304" height="36" viewBox="0 0 304 36" fill="none" xmlns="http://www.w3.org/2000/svg">
<path d="M300.323 19H55.6775C53.6457 19 52 18.3277 52 17.5C52 16.6712 53.6457 16 55.6775 16H300.323C302.357 16 304 16.6712 304 17.5C304 18.3277 302.357 19 300.323 19Z" fill="white"/>
<path d="M4.92402 17.8469C7.56169 19.1685 11.8372 20.8931 15.189 20.2312C16.6665 19.9389 17.194 18.8088 17.194 17.8502C17.194 16.8905 16.6665 15.7603 15.189 15.4681C12.0166 14.8416 7.77433 16.4289 4.92402 17.8469ZM15.5025 21.813H15.5184H15.5025ZM13.6575 23.5973C7.64295 23.5973 1.05069 19.4065 0.740752 19.2062C0.279388 18.9084 0 18.3981 0 17.8502C0 17.3011 0.279388 16.7909 0.740752 16.4942C1.08877 16.2695 9.33011 11.0149 15.816 12.3045C18.5694 12.8491 20.4201 15.0773 20.4201 17.8502C20.4201 20.6219 18.5694 22.8501 15.816 23.3959C15.1146 23.5353 14.3891 23.5973 13.6575 23.5973Z" fill="white"/>
<path d="M25.9589 19.7563C25.7241 19.8703 25.5027 20.0164 25.2968 20.1924C24.6626 20.7359 24.2765 21.4964 24.2107 22.3332C24.1164 23.5253 25.002 24.5802 26.1846 24.6843C26.5226 24.7153 26.9261 24.5658 27.2115 24.2902C27.6504 23.8663 27.8182 23.4202 27.6785 23.0339C27.5703 22.7317 27.2958 22.5202 26.981 22.4948C26.0929 22.4239 25.43 21.6469 25.5001 20.7591C25.5325 20.3662 25.7024 20.0164 25.9589 19.7563ZM49.8341 35.6738C47.3968 35.6738 45.0052 34.8535 43.0543 33.285L42.8174 33.0957C40.8664 31.6147 38.7023 28.999 37.0622 26.1233C33.8746 20.4392 29.5931 19.5969 28.1982 19.4773C29.3531 19.8659 30.2936 20.7669 30.716 21.9469C31.2889 23.5508 30.8164 25.2942 29.4513 26.6114C28.5013 27.529 27.1436 28.005 25.9013 27.8977C22.9632 27.6398 20.7632 25.0296 20.995 22.0797C21.1291 20.3861 21.9112 18.8464 23.1976 17.7439C24.4658 16.6558 26.0851 16.1256 27.7338 16.2319C28.6743 16.2142 35.3564 16.4875 39.8705 24.5359C41.2793 27.0055 43.1688 29.3145 44.8003 30.5521L45.0714 30.769C47.0876 32.3873 49.7663 32.8721 52.2391 32.063C54.5548 31.3081 56.2351 29.5647 56.8483 27.2822C56.9015 27.0918 56.9435 26.9059 56.9812 26.7166C57.2977 25.1071 56.8838 23.4401 55.8145 22.0332C54.277 20.0131 52.2646 19.122 50.2968 19.5792C48.5551 19.9865 47.2108 21.3879 46.8692 23.1523C46.7058 23.9936 46.9285 24.9001 47.4798 25.6396C48.3186 26.7675 49.4004 27.2756 50.4365 27.0398C51.3337 26.8339 52.0266 26.1133 52.2026 25.2034C52.3631 24.3655 51.8185 23.5508 50.9873 23.3892C50.1131 23.2187 49.5422 22.3719 49.713 21.4975C49.8831 20.623 50.7305 20.0529 51.6049 20.2234C54.1773 20.7248 55.8676 23.2331 55.3684 25.8155C54.9511 27.9796 53.2973 29.6942 51.1551 30.1834C48.8418 30.7114 46.5077 29.7318 44.8928 27.5678C43.8023 26.1022 43.3677 24.2692 43.7029 22.5391C44.2853 19.5272 46.5869 17.134 49.563 16.4388C52.7871 15.6872 56.079 17.051 58.3814 20.0817C59.9931 22.2003 60.6351 24.8481 60.1458 27.3464C60.0905 27.6187 60.0318 27.8755 59.9632 28.129C59.06 31.4763 56.6092 34.03 53.2387 35.1292C52.1218 35.4945 50.9714 35.6738 49.8341 35.6738Z" fill="white"/>
<path d="M26.2754 10.9862L26.1846 10.9906C25.002 11.0935 24.1164 12.1484 24.2107 13.3417C24.2765 14.1774 24.6626 14.9379 25.2968 15.4814C25.5001 15.6563 25.7232 15.8024 25.9589 15.9175C25.7024 15.6563 25.5325 15.3087 25.5001 14.9157C25.43 14.0269 26.0929 13.2498 26.981 13.179C27.2958 13.1546 27.5703 12.9432 27.6785 12.641C27.8182 12.2547 27.6504 11.8086 27.2115 11.3847C26.9512 11.1334 26.6018 10.9862 26.2754 10.9862ZM27.3058 19.4552C25.7985 19.4552 24.3577 18.9239 23.1976 17.931C21.9112 16.8285 21.1291 15.2877 20.995 13.5952C20.7632 10.6452 22.9632 8.03512 25.9013 7.77721C27.1717 7.65877 28.5013 8.14583 29.4513 9.06346C30.8164 10.3807 31.2889 12.1241 30.716 13.728C30.2936 14.9091 29.3518 15.8101 28.1973 16.1987C29.5723 16.0802 33.8668 15.25 37.0579 9.56047C38.7023 6.67584 40.8664 4.05908 42.851 2.55256L43.0521 2.38874C45.9159 0.0874557 49.7225 -0.603279 53.2387 0.544596C56.6092 1.64377 59.06 4.19743 59.9643 7.55139C60.0318 7.79935 60.0905 8.05617 60.1447 8.3174C60.6351 10.8268 59.9931 13.4745 58.3814 15.5932C56.0779 18.6261 52.7848 19.9887 49.563 19.236C46.5869 18.5398 44.2853 16.1455 43.7029 13.1347C43.3677 11.4046 43.8023 9.57263 44.8928 8.10707C46.5077 5.94194 48.8418 4.96675 51.1551 5.49033C53.2973 5.97958 54.9511 7.6942 55.3684 9.85822C55.8676 12.4407 54.1773 14.9489 51.6049 15.4515C50.7305 15.622 49.883 15.0508 49.713 14.1763C49.5422 13.3018 50.1131 12.455 50.9873 12.2857C51.8185 12.123 52.3631 11.3094 52.2026 10.4692C52.0266 9.56046 51.3337 8.83985 50.4365 8.63507C49.4004 8.40041 48.3207 8.90739 47.4798 10.0342C46.9285 10.7737 46.7058 11.6802 46.8692 12.5215C47.2108 14.2859 48.5564 15.6884 50.2968 16.0946C52.2701 16.5518 54.2792 15.6618 55.8145 13.6417C56.8838 12.2348 57.2977 10.5678 56.9789 8.94834C56.9435 8.76902 56.9015 8.58084 56.8505 8.3971C56.2351 6.10799 54.5548 4.36681 52.2391 3.61078C49.762 2.80273 47.0841 3.28645 45.0735 4.90365L44.8371 5.09404C43.1688 6.35925 41.2793 8.66827 39.8662 11.1478C35.3591 19.184 28.6946 19.4707 27.7338 19.4408C27.5912 19.4508 27.4494 19.4552 27.3058 19.4552Z" fill="white"/>
</svg>
